<svg width="14" height="18" viewBox="0 0 14 18" fill="none" xmlns="http://www.w3.org/2000/svg">
<path d="M8.2301 14.2189V17.472H5.72564V14.2189H5.485C4.0055 14.2189 2.72802 13.7703 1.65256 12.8731C0.583038 11.9699 0.0482788 10.8499 0.0482788 9.51301C0.0482788 9.33476 0.0542206 9.13868 0.0661041 8.92477C0.0779877 8.70493 0.095813 8.51182 0.11958 8.34545L2.62404 8.64848L2.58839 9.04955C2.5765 9.18621 2.57056 9.3199 2.57056 9.45062C2.57056 10.2468 2.86765 10.9153 3.46183 11.456C4.06194 11.9907 4.81655 12.2581 5.72564 12.2581V6.40249C4.35309 6.40249 3.30437 6.16482 2.57947 5.68948C1.85458 5.2082 1.49213 4.5338 1.49213 3.66631C1.49213 2.75127 1.85755 2.04717 2.58839 1.55401C3.31922 1.0549 4.36498 0.805344 5.72564 0.805344H8.2301V4.40606C10.0067 4.40606 11.403 4.86654 12.419 5.78752C13.4351 6.70849 13.9431 7.96815 13.9431 9.56648C13.9431 10.9985 13.4291 12.1333 12.4012 12.9711C11.3792 13.803 9.98886 14.2189 8.2301 14.2189ZM5.72564 2.63244C5.04234 2.63244 4.54917 2.71265 4.24614 2.87308C3.94905 3.02757 3.80051 3.26227 3.80051 3.57718C3.80051 3.88021 3.96094 4.09411 4.28179 4.21889C4.60859 4.34367 5.08987 4.40606 5.72564 4.40606V2.63244ZM8.2301 6.42032V12.2581C9.21643 12.2581 9.98886 12.0115 10.5474 11.5184C11.1059 11.0252 11.3852 10.3627 11.3852 9.53083C11.3852 8.48508 11.1297 7.70671 10.6187 7.19572C10.1136 6.67878 9.31744 6.42032 8.2301 6.42032Z" fill="#8F90A6"/>
</svg>
